# Alias OBJ Model File
# Exported from SketchUp, (c) 2000-2006 Google, Inc.
# File units = inches

mtllib stairs_bridge.mtl

g Mesh1 schod1 schody1 Model

usemtl Brick_Pavers_Hex
v -225.342 31.4961 -328.152
vt 0 0
vn 0 1 0
v -178.886 31.4961 -328.152
vt 1.29046 0
v -178.886 31.4961 -339.963
vt 1.29046 0.571357
v -225.342 31.4961 -339.963
vt 0 0.571357
f 1/1/1 2/2/1 3/3/1 4/4/1 

v -225.342 23.622 -328.152
vn 0 0 1
v -178.886 23.622 -328.152
vt 1.29046 0.380905
vt 0 0.380905
f 5/1/2 6/2/2 2/5/2 1/6/2 

g Mesh2 schod2 schody1 Model

v -225.342 55.1181 -363.585
v -178.886 55.1181 -363.585
v -178.886 55.1181 -375.396
v -225.342 55.1181 -375.396
f 7/1/1 8/2/1 9/3/1 10/4/1 

v -225.342 47.2441 -363.585
v -178.886 47.2441 -363.585
f 11/1/2 12/2/2 8/5/2 7/6/2 

g Mesh3 schod3 schody1 Model

v -225.342 39.3701 -339.963
v -178.886 39.3701 -339.963
v -178.886 39.3701 -351.774
v -225.342 39.3701 -351.774
f 13/1/1 14/2/1 15/3/1 16/4/1 

v -225.342 31.4961 -339.963
v -178.886 31.4961 -339.963
f 17/1/2 18/2/2 14/5/2 13/6/2 

g Mesh4 schod4 schody1 Model

v -225.342 62.9921 -375.396
v -178.886 62.9921 -375.396
v -178.886 62.9921 -387.207
v -225.342 62.9921 -387.207
f 19/1/1 20/2/1 21/3/1 22/4/1 

v -225.342 55.1181 -375.396
v -178.886 55.1181 -375.396
f 23/1/2 24/2/2 20/5/2 19/6/2 

g Mesh5 schod5 schody1 Model

v -225.342 70.8661 -387.207
v -178.886 70.8661 -387.207
v -178.886 70.8661 -399.018
v -225.342 70.8661 -399.018
f 25/1/1 26/2/1 27/3/1 28/4/1 

v -225.342 62.9921 -387.207
v -178.886 62.9921 -387.207
f 29/1/2 30/2/2 26/5/2 25/6/2 

g Mesh6 schod6 schody1 Model

v -225.342 23.622 -316.341
v -178.886 23.622 -316.341
v -178.886 23.622 -328.152
v -225.342 23.622 -328.152
f 31/1/1 32/2/1 33/3/1 34/4/1 

v -225.342 15.748 -316.341
v -178.886 15.748 -316.341
f 35/1/2 36/2/2 32/5/2 31/6/2 

g Mesh7 schod7 schody1 Model

v -225.342 47.2441 -351.774
v -178.886 47.2441 -351.774
v -178.886 47.2441 -363.585
v -225.342 47.2441 -363.585
f 37/1/1 38/2/1 39/3/1 40/4/1 

v -225.342 39.3701 -351.774
v -178.886 39.3701 -351.774
f 41/1/2 42/2/2 38/5/2 37/6/2 

g Mesh8 schod8 schody1 Model

v -225.342 94.4882 -422.64
v -178.886 94.4882 -422.64
v -178.886 94.4882 -434.451
v -225.342 94.4882 -434.451
f 43/1/1 44/2/1 45/3/1 46/4/1 

v -225.342 86.6142 -422.64
v -178.886 86.6142 -422.64
f 47/1/2 48/2/2 44/5/2 43/6/2 

g Mesh9 schod9 schody1 Model

v -225.342 110.236 -446.262
v -178.886 110.236 -446.262
v -178.886 110.236 -458.073
v -225.342 110.236 -458.073
f 49/1/1 50/2/1 51/3/1 52/4/1 

v -225.342 102.362 -446.262
v -178.886 102.362 -446.262
f 53/1/2 54/2/2 50/5/2 49/6/2 

g Mesh10 schod10 schody1 Model

v -225.342 102.362 -434.451
v -178.886 102.362 -434.451
v -178.886 102.362 -446.262
v -225.342 102.362 -446.262
f 55/1/1 56/2/1 57/3/1 58/4/1 

v -225.342 94.4882 -434.451
v -178.886 94.4882 -434.451
f 59/1/2 60/2/2 56/5/2 55/6/2 

g Mesh11 schod11 schody1 Model

v -225.342 7.87402 -292.719
v -178.886 7.87402 -292.719
v -178.886 7.87402 -304.53
v -225.342 7.87402 -304.53
f 61/1/1 62/2/1 63/3/1 64/4/1 

v -225.342 1.44773e-013 -292.719
v -178.886 1.44773e-013 -292.719
f 65/1/2 66/2/2 62/5/2 61/6/2 

g Mesh12 schod12 schody1 Model

v -225.342 118.11 -458.073
v -178.886 118.11 -458.073
v -178.886 118.11 -469.884
v -225.342 118.11 -469.884
f 67/1/1 68/2/1 69/3/1 70/4/1 

v -225.342 110.236 -458.073
v -178.886 110.236 -458.073
f 71/1/2 72/2/2 68/5/2 67/6/2 

g Mesh13 schod13 schody1 Model

v -225.342 133.858 -481.695
v -178.886 133.858 -481.695
v -178.886 133.858 -493.506
v -225.342 133.858 -493.506
f 73/1/1 74/2/1 75/3/1 76/4/1 

v -225.342 125.984 -481.695
v -178.886 125.984 -481.695
f 77/1/2 78/2/2 74/5/2 73/6/2 

g Mesh14 schod14 schody1 Model

v -225.342 78.7402 -399.018
v -178.886 78.7402 -399.018
v -178.886 78.7402 -410.829
v -225.342 78.7402 -410.829
f 79/1/1 80/2/1 81/3/1 82/4/1 

v -225.342 70.8661 -399.018
v -178.886 70.8661 -399.018
f 83/1/2 84/2/2 80/5/2 79/6/2 

g Mesh15 schod15 schody1 Model

v -225.342 15.748 -304.53
v -178.886 15.748 -304.53
v -178.886 15.748 -316.341
v -225.342 15.748 -316.341
f 85/1/1 86/2/1 87/3/1 88/4/1 

v -225.342 7.87402 -304.53
v -178.886 7.87402 -304.53
f 89/1/2 90/2/2 86/5/2 85/6/2 

g Mesh16 schod16 schody1 Model

v -225.342 86.6142 -410.829
v -178.886 86.6142 -410.829
v -178.886 86.6142 -422.64
v -225.342 86.6142 -422.64
f 91/1/1 92/2/1 93/3/1 94/4/1 

v -225.342 78.7402 -410.829
v -178.886 78.7402 -410.829
f 95/1/2 96/2/2 92/5/2 91/6/2 

g Mesh17 schod17 schody1 Model

v -225.342 125.984 -469.884
v -178.886 125.984 -469.884
v -178.886 125.984 -481.695
v -225.342 125.984 -481.695
f 97/1/1 98/2/1 99/3/1 100/4/1 

v -225.342 118.11 -469.884
v -178.886 118.11 -469.884
f 101/1/2 102/2/2 98/5/2 97/6/2 

g Mesh18 schody1 Model

usemtl Stone_Sandstone_Rectangle
v -170.224 1.43885e-013 -280.908
vt 0.656168 -6.61892e-016
vn 2.10151e-016 0.83205 0.5547
v -170.224 141.732 -493.506
vt 0.656168 8.51705
v -178.886 141.732 -493.506
vt 0.565945 8.51705
v -178.886 1.43885e-013 -280.908
vt 0.565945 -5.70881e-016
f 103/7/3 104/8/3 105/9/3 106/10/3 

v -170.224 1.44773e-013 -292.719
vt 0.123031 4.53033e-013
vn 1 -2.15743e-013 -1.48059e-013
v -170.224 1.44781e-013 -500.199
vt 2.28428 4.53033e-013
v -170.224 133.858 -500.199
vt 2.28428 4.46194
v -170.224 141.732 -500.199
vt 2.28428 4.72441
vt 2.21457 4.72441
vt -9.71513e-014 4.53003e-013
f 107/11/4 108/12/4 109/13/4 110/14/4 104/15/4 103/16/4 

v -178.886 141.732 -500.199
vt -0.565945 4.72441
vn 4.10177e-015 -4.51195e-015 -1
vt -0.656168 4.72441
vt -0.656168 4.46194
v -178.886 133.858 -500.199
vt -0.565945 4.46194
f 111/17/5 110/18/5 109/19/5 112/20/5 

vt 0.565945 7.08661
vt 0.656168 7.08661
vt 0.656168 7.30971
vt 0.565945 7.30971
f 105/21/1 104/22/1 110/23/1 111/24/1 

vt -2.28428 4.46194
vn -1 -1.91788e-014 -1.3376e-014
v -178.886 133.858 -493.506
vt -2.21457 4.46194
v -178.886 7.87402 -304.53
vt -0.246063 0.262467
v -178.886 1.43885e-013 -292.719
vt -0.123031 -3.47333e-014
vt -7.57009e-015 -3.47333e-014
vt -2.21457 4.72441
vt -2.28428 4.72441
f 112/25/6 113/26/6 114/27/6 115/28/6 106/29/6 105/30/6 111/31/6 

vt -0.082021 0.327579
vn -3.36175e-015 -0.83205 -0.5547
v -225.342 133.858 -493.506
vt -0.082021 8.37146
vt -0.565945 8.37146
vt -0.565945 0.800748
vt -0.565945 0.327579
f 65/32/7 116/33/7 113/34/7 114/35/7 115/36/7 

vt 0.123031 -1.15145e-015
vn 1 4.49984e-015 2.4092e-015
vt 2.21457 4.46194
v -225.342 133.858 -500.199
vt 2.28428 4.46194
v -225.342 141.732 -500.199
vt 2.28428 4.72441
v -225.342 141.732 -493.506
vt 2.21457 4.72441
vt 2.09154 4.46194
v -225.342 1.43885e-013 -280.908
vt 1.97605e-016 -1.18106e-015
f 65/37/8 116/38/8 117/39/8 118/40/8 119/41/8 73/42/8 120/43/8 

vt -0.082021 4.46194
vn 2.29699e-014 -2.60349e-026 -1
v -234.004 133.858 -500.199
vt 0.0082021 4.46194
v -234.004 141.732 -500.199
vt 0.0082021 4.72441
vt -0.082021 4.72441
f 117/44/9 121/45/9 122/46/9 118/47/9 

v -234.004 2.69955e-016 -280.908
vt -6.34057e-016 -3.87146e-015
vn -1 -3.48882e-014 5.11308e-015
v -234.004 141.732 -493.506
vt -2.21457 4.72441
vt -2.28428 4.72441
vt -2.28428 4.46194
v -234.004 1.09064e-015 -500.199
vt -2.28428 -3.84411e-015
v -234.004 1.08286e-015 -292.719
vt -0.123031 -3.84437e-015
f 123/48/10 124/49/10 122/50/10 121/51/10 125/52/10 126/53/10 

vt -0.0082021 8.51705
vn -4.07248e-016 0.83205 0.5547
vt -0.0082021 -1.09492e-015
vt 0.082021 1.60334e-016
vt 0.082021 8.04388
vt 0.082021 8.51705
f 124/54/11 123/55/11 120/56/11 73/57/11 119/58/11 

vt -0.082021 9.03392e-035
vn -4.7796e-018 -1 -7.20127e-017
vt 0.0082021 1.89478e-015
vt 0.0082021 0.393701
vt -0.082021 0.393701
f 120/59/12 123/60/12 126/61/12 65/62/12 

vt -0.0082021 7.30971
vn -1.96885e-014 1 1.67019e-028
vt -0.0082021 7.08661
vt 0.082021 7.08661
vt 0.082021 7.30971
f 122/63/13 124/64/13 119/65/13 118/66/13 

vt -0.656168 0.393701
vn 5.12721e-017 -1 -3.75996e-017
vt -0.656168 -4.04789e-033
vt -0.565945 -3.49131e-033
vt -0.565945 0.393701
f 107/67/14 103/68/14 106/69/14 115/70/14 

