mtllib ./Bark-1.mtl
g Bark-1
v -0.03461456 0.05733868 -0.01862679
v -0.03853607 0 0.02827469
v -0.03853607 0 -0.02254844
v -0.03461456 0.05733868 0.02435306
v -0.1249638 0.1876824 0.02968931
v -0.1258702 0.1795206 0.04142617
v -0.1312399 0.1795206 0.03175355
v -0.1207991 0.1876824 0.0371913
v 0.03461456 0.05733868 0.02435306
v 0.03069305 0.1146774 0.02043143
v 0.03069305 0.1146774 -0.02446035
v 0.03461456 0.05733868 -0.02838197
v -0.03069305 0.1146774 -0.02446035
v -0.07721901 0.1283097 0.01044238
v -0.03461456 0.05733868 -0.01862679
v -0.0698123 0.1475536 0.009396717
v -0.03461456 0.05733868 -0.01862679
v -0.07074308 0.1283097 0.02596341
v -0.03461456 0.05733868 0.02435306
v -0.07721901 0.1283097 0.01044238
v -0.03461456 0.05733868 0.02435306
v -0.06478977 0.1475536 0.02143469
v -0.03069305 0.1146774 0.02043143
v -0.07074308 0.1283097 0.02596341
v -0.03069305 0.1146774 0.02043143
v -0.0698123 0.1475536 0.009396717
v -0.03069305 0.1146774 -0.02446035
v -0.06478977 0.1475536 0.02143469
v 0.03069305 0.1146774 0.02043143
v 0.04141998 0.1383464 0.01568872
v 0.03069305 0.1146774 -0.02446035
v 0.04141998 0.1383464 -0.01971765
v -0.004701138 0.1470674 -0.01971765
v -0.004701138 0.1470674 0.01568872
v -0.03069305 0.1146774 -0.02446035
v -0.03069305 0.1146774 0.02043143
v -0.03461456 0.05733868 0.02435306
v 0 0 0.03802988
v -0.03853607 0 0.02827469
v 0 0.05733868 0.03410824
v -0.03069305 0.1146774 0.02043143
v 0 0.1146774 0.03018661
v 0 0.05733868 0.03410824
v 0.03461456 0.05733868 0.02435306
v 0 0 0.03802988
v 0.03853607 0 0.02827469
v 0.03069305 0.1146774 0.02043143
v 0 0.1146774 0.03018661
v 0.03853607 0 -0.0323036
v 0.03461456 0.05733868 -0.02838197
v 0 0 -0.03802986
v 0 0.05733868 -0.03410822
v 0.03069305 0.1146774 -0.02446035
v 0 0.1146774 -0.03018659
v 0 0 -0.03802986
v 0 0.05733868 -0.03410822
v -0.03461456 0.05733868 -0.01862679
v -0.03853607 0 -0.02254844
v 0 0.05733868 -0.03410822
v 0 0.1146774 -0.03018659
v -0.03069305 0.1146774 -0.02446035
v -0.03461456 0.05733868 -0.01862679
v -0.004701138 0.1470674 0.01568872
v 0 0.1146774 0.03018661
v -0.03069305 0.1146774 0.02043143
v 0.01835966 0.1427068 0.0224247
v 0.01835966 0.1427068 0.0224247
v 0.03069305 0.1146774 0.02043143
v 0 0.1146774 0.03018661
v 0.04141998 0.1383464 0.01568872
v -0.004701138 0.1470674 0.01568872
v 0.01537466 0.1794573 0.01580989
v 0.01835966 0.1427068 0.0224247
v 0.03671932 0.1707363 0.01094602
v 0.03671932 0.1707363 0.01094602
v 0.04141998 0.1383464 0.01568872
v 0.01835966 0.1427068 0.0224247
v 0.05214739 0.1620153 0.01094602
v 0.03069305 0.1146774 -0.02446035
v 0.04141998 0.1383464 -0.01971765
v 0.01835966 0.1427068 -0.02544388
v 0 0.1146774 -0.03018659
v 0 0.1146774 -0.03018659
v 0.01835966 0.1427068 -0.02544388
v -0.004701138 0.1470674 -0.01971765
v -0.03069305 0.1146774 -0.02446035
v 0.04141998 0.1383464 -0.01971765
v 0.05214739 0.1620153 -0.01497494
v 0.03671932 0.1707363 -0.02070118
v 0.01835966 0.1427068 -0.02544388
v 0.03671932 0.1707363 -0.02070118
v 0.009476662 0.1794573 -0.01497494
v 0.01835966 0.1427068 -0.02544388
v -0.004701138 0.1470674 -0.01971765
v 0.03671932 0.1707363 0.01094602
v 0.01266336 0.2187332 -0.01444185
v 0.03671932 0.1707363 -0.02070118
v 0.01266336 0.2187332 -0.002652794
v 0.03671932 0.1707363 -0.02070118
v 0.0004262924 0.2133114 -0.0206603
v 0.009476662 0.1794573 -0.01497494
v 0.01266336 0.2187332 -0.01444185
v 0.01537466 0.1794573 0.01580989
v 0.01266336 0.2187332 -0.002652794
v 0.03671932 0.1707363 0.01094602
v 0.0004262924 0.2133114 0.001679078
v 0.009476662 0.1794573 -0.01497494
v -0.01063395 0.2071107 -0.01659887
v -0.004701138 0.1470674 -0.01971765
v 0.0004262924 0.2133114 -0.0206603
v -0.004701138 0.1470674 -0.01971765
v -0.01063395 0.2071107 -0.0004957765
v -0.004701138 0.1470674 0.01568872
v -0.01063395 0.2071107 -0.01659887
v -0.004701138 0.1470674 0.01568872
v 0.0004262924 0.2133114 0.001679078
v 0.01537466 0.1794573 0.01580989
v -0.01063395 0.2071107 -0.0004957765
v 0.05214739 0.1620153 -0.01497494
v 0.07583141 0.1715164 -0.008702129
v 0.03671932 0.1707363 -0.02070118
v 0.07622385 0.1587778 -0.0134283
v 0.03671932 0.1707363 -0.02070118
v 0.07583141 0.1715164 0.00504446
v 0.03671932 0.1707363 0.01094602
v 0.07583141 0.1715164 -0.008702129
v 0.03671932 0.1707363 0.01094602
v 0.07622385 0.1587778 0.00504446
v 0.05214739 0.1620153 0.01094602
v 0.07583141 0.1715164 0.00504446
v 0.05214739 0.1620153 0.01094602
v 0.07163477 0.1466417 0.007559642
v 0.04141998 0.1383464 0.01568872
v 0.07622385 0.1587778 0.00504446
v 0.04141998 0.1383464 -0.01971765
v 0.07622385 0.1587778 -0.0134283
v 0.05214739 0.1620153 -0.01497494
v 0.07163477 0.1466417 -0.0112173
v 0.04141998 0.1383464 0.01568872
v 0.07163477 0.1466417 -0.0112173
v 0.04141998 0.1383464 -0.01971765
v 0.07163477 0.1466417 0.007559642
v 0.07622385 0.1587778 0.00504446
v 0.112072 0.1425884 0.009890705
v 0.07163477 0.1466417 0.007559642
v 0.117054 0.152496 0.007375523
v 0.07163477 0.1466417 -0.0112173
v 0.117054 0.152496 -0.01109724
v 0.07622385 0.1587778 -0.0134283
v 0.112072 0.1425884 -0.008886233
v 0.07163477 0.1466417 0.007559642
v 0.112072 0.1425884 -0.008886233
v 0.07163477 0.1466417 -0.0112173
v 0.112072 0.1425884 0.009890705
v 0.07622385 0.1587778 -0.0134283
v 0.1167631 0.1628782 -0.006371051
v 0.07583141 0.1715164 -0.008702129
v 0.117054 0.152496 -0.01109724
v 0.07583141 0.1715164 -0.008702129
v 0.1167631 0.1628782 0.007375523
v 0.07583141 0.1715164 0.00504446
v 0.1167631 0.1628782 -0.006371051
v 0.07583141 0.1715164 0.00504446
v 0.117054 0.152496 0.007375523
v 0.07622385 0.1587778 0.00504446
v 0.1167631 0.1628782 0.007375523
v 0.117054 0.152496 0.007375523
v 0.1535258 0.1497804 0.02094448
v 0.112072 0.1425884 0.009890705
v 0.1530929 0.1588345 0.01833192
v 0.112072 0.1425884 -0.008886233
v 0.1552019 0.1588345 2.197921E-05
v 0.117054 0.152496 -0.01109724
v 0.1564069 0.1497804 0.002389923
v 0.112072 0.1425884 0.009890705
v 0.1564069 0.1497804 0.002389923
v 0.112072 0.1425884 -0.008886233
v 0.1535258 0.1497804 0.02094448
v 0.117054 0.152496 -0.01109724
v 0.1500306 0.1642068 0.003945068
v 0.1167631 0.1628782 -0.006371051
v 0.1552019 0.1588345 2.197921E-05
v 0.1167631 0.1628782 -0.006371051
v 0.1479211 0.1642068 0.01752883
v 0.1167631 0.1628782 0.007375523
v 0.1500306 0.1642068 0.003945068
v 0.1167631 0.1628782 0.007375523
v 0.1530929 0.1588345 0.01833192
v 0.117054 0.152496 0.007375523
v 0.1479211 0.1642068 0.01752883
v -0.0698123 0.1475536 0.009396717
v -0.1312399 0.1795206 0.03175355
v -0.07721901 0.1283097 0.01044238
v -0.1249638 0.1876824 0.02968931
v -0.07721901 0.1283097 0.01044238
v -0.1258702 0.1795206 0.04142617
v -0.07074308 0.1283097 0.02596341
v -0.1312399 0.1795206 0.03175355
v -0.07074308 0.1283097 0.02596341
v -0.1207991 0.1876824 0.0371913
v -0.06478977 0.1475536 0.02143469
v -0.1258702 0.1795206 0.04142617
v -0.06478977 0.1475536 0.02143469
v -0.1249638 0.1876824 0.02968931
v -0.0698123 0.1475536 0.009396717
v -0.1207991 0.1876824 0.0371913
v 0.01266336 0.2187332 -0.01444185
v 0.01266336 0.2187332 -0.002652794
v 0.0004262924 0.2133114 0.001679078
v 0.0004262924 0.2133114 -0.0206603
v 0.0004262924 0.2133114 -0.0206603
v 0.0004262924 0.2133114 0.001679078
v -0.01063395 0.2071107 -0.01659887
v -0.01063395 0.2071107 -0.0004957765
v 0.1564069 0.1497804 0.002389923
v 0.1535258 0.1497804 0.02094448
v 0.1530929 0.1588345 0.01833192
v 0.1552019 0.1588345 2.197921E-05
v 0.1552019 0.1588345 2.197921E-05
v 0.1530929 0.1588345 0.01833192
v 0.1479211 0.1642068 0.01752883
v 0.1500306 0.1642068 0.003945068
v 0.03461456 0.05733868 -0.02838197
v 0.03853607 0 0.02827469
v 0.03461456 0.05733868 0.02435306
v 0.03853607 0 -0.0323036
v 0 0 -0.03802986
v 0 0 0
v 0.03853607 0 -0.0323036
v 0.03853607 0 0.02827469
v 0 0 0
v 0 0 0.03802988
v 0.03853607 0 -0.0323036
v 0 0 0
v -0.03853607 0 -0.02254844
v -0.03853607 0 0.02827469
v 0 0 -0.03802986
v -0.03853607 0 0.02827469
v 0 0 0.03802988
v 0 0 0

vn -0.9976695 0.06823265 0
vn -0.9976695 0.06823265 0
vn -0.9976693 0.06823263 0
vn -0.9976695 0.06823264 0
vn -0.6843618 0.622343 0.3799186
vn -0.6843618 0.622343 0.3799186
vn -0.684363 0.6223422 0.3799179
vn -0.6843603 0.6223441 0.3799195
vn 0.9976695 0.06823263 0
vn 0.9976695 0.06823264 0
vn 0.9976695 0.06823263 0
vn 0.9976695 0.06823264 0
vn -0.5969601 0.01625221 -0.8021064
vn -0.5969601 0.01625221 -0.8021064
vn -0.6069611 -0.03924483 -0.7937619
vn -0.558718 0.1709453 -0.811549
vn -0.8616067 -0.4985346 0.09537806
vn -0.8616067 -0.4985346 0.09537806
vn -0.8911741 -0.4536614 0
vn -0.7518921 -0.5798624 0.313716
vn 0.1653344 0.08708046 0.9823856
vn 0.1653344 0.08708046 0.9823856
vn 0.08894316 0.06190832 0.9941109
vn 0.2981162 0.1303033 0.9455939
vn 0.6517682 0.7562353 -0.05750109
vn 0.6517682 0.7562353 -0.05750109
vn 0.6433765 0.7655499 0
vn 0.6628082 0.6958529 -0.2765391
vn 0.9108256 -0.4127914 0
vn 0.9108256 -0.4127914 0
vn 0.9108256 -0.4127914 0
vn 0.9108256 -0.4127914 0
vn -0.779929 0.6258679 0
vn -0.779929 0.625868 0
vn -0.779929 0.625868 0
vn -0.779929 0.625868 0
vn -0.2612831 0.07771712 0.9621285
vn -0.2569865 0.07468744 0.9635246
vn -0.2445609 0.08280102 0.9660921
vn -0.2803493 0.07185847 0.9572047
vn -0.2854365 0.07510794 0.95545
vn -0.302258 0.06504311 0.9510045
vn 0.2803493 0.07185847 0.9572047
vn 0.261283 0.07771712 0.9621285
vn 0.2569865 0.07468744 0.9635246
vn 0.2445609 0.08280101 0.9660921
vn 0.2854364 0.07510794 0.95545
vn 0.302258 0.06504311 0.9510045
vn 0.1465393 0.07747009 -0.9861666
vn 0.1569839 0.07451129 -0.9847862
vn 0.1542675 0.07266781 -0.9853531
vn 0.1690068 0.07108769 -0.983048
vn 0.1722648 0.07307678 -0.9823363
vn 0.1829874 0.06708258 -0.9808239
vn -0.3886648 0.07609267 -0.9182318
vn -0.407484 0.06231301 -0.9110839
vn -0.3886648 0.07609267 -0.9182318
vn -0.3713147 0.08860978 -0.9242693
vn -0.3088539 -0.005295266 -0.9510947
vn -0.1829874 0.06708258 -0.9808239
vn -0.3088539 -0.005295266 -0.9510947
vn -0.407419 -0.06481332 -0.9109386
vn -0.245666 0.366097 0.897564
vn -0.245666 0.366097 0.897564
vn -0.2828991 0.3573498 0.8900951
vn -0.1931974 0.3773512 0.9056937
vn 0.2973912 0.06310931 0.9526677
vn 0.2973912 0.06310931 0.9526677
vn 0.3022515 0.06536764 0.9509842
vn 0.2902879 0.05981305 0.9550682
vn -0.2505889 0.151742 0.9561273
vn 0.01095291 0.1779968 0.9839701
vn 0.01095291 0.1779968 0.9839701
vn 0.2920738 0.1923498 0.9368535
vn 0.2266198 0.1732305 0.9584543
vn 0.2266198 0.1732305 0.9584543
vn 0.30718 0.1813717 0.934208
vn 0.08868959 0.1568985 0.9836244
vn 0.2126135 0.05932936 -0.9753336
vn 0.2541289 0.07799374 -0.9640205
vn 0.2126135 0.05932936 -0.9753336
vn 0.1832051 0.0461556 -0.9819906
vn -0.1783889 0.2790793 -0.943553
vn -0.1815301 0.2784863 -0.9431289
vn -0.1783889 0.2790793 -0.943553
vn -0.1760906 0.2795111 -0.9438568
vn 0.2892022 0.01290583 -0.9571811
vn 0.3596998 0.02387845 -0.9327626
vn 0.2892022 0.01290583 -0.9571811
vn 0.2420004 0.005658429 -0.9702596
vn -0.1240565 0.2440002 -0.9618077
vn -0.1571938 0.2352316 -0.9591435
vn -0.1571938 0.2352316 -0.9591435
vn -0.1945385 0.2249539 -0.9547516
vn 0.8939983 0.4480705 0
vn 0.8939983 0.4480705 0
vn 0.8939983 0.4480705 0
vn 0.8939982 0.4480705 0
vn 0.01350753 0.01247469 -0.9998309
vn 0.01350753 0.01247469 -0.9998309
vn -0.2699505 -0.2292202 -0.9351925
vn 0.3316154 0.2835486 -0.8997952
vn 0.2776974 0.4243197 0.8618798
vn 0.2776974 0.4243197 0.8618798
vn 0.3605248 0.4170764 0.8343076
vn 0.1264594 0.4291392 0.894342
vn 0.05520356 -0.01847865 -0.9983041
vn 0.05520356 -0.01847865 -0.9983041
vn 0.1730286 0.06813297 -0.9825574
vn -0.2253997 -0.2196594 -0.949181
vn -0.9951539 -0.09832998 0
vn -0.9951539 -0.09832998 0
vn -0.9951538 -0.09832998 0
vn -0.9951538 -0.09832998 0
vn -0.3397375 0.2196996 0.9145001
vn -0.3397375 0.2196996 0.9145001
vn -0.3598147 0.2196265 0.9068062
vn -0.3053125 0.2195913 0.9265872
vn 0.2124425 0.1113756 -0.9708057
vn 0.2124425 0.1113756 -0.9708057
vn 0.2935928 -0.1045191 -0.9501994
vn 0.106709 0.3487465 -0.9311224
vn -0.01994027 0.9998012 0
vn -0.01994027 0.9998012 0
vn -0.01994027 0.9998011 0
vn -0.01994027 0.9998012 0
vn 0.1870415 0.1378918 0.972626
vn 0.1870415 0.1378918 0.972626
vn 0.2692232 0.476276 0.8370664
vn 0.1491084 0.00459359 0.9888102
vn 0.241028 0.09272386 0.9660786
vn 0.241028 0.09272386 0.9660786
vn 0.2365617 0.08669624 0.9677408
vn 0.2500434 0.1049329 0.9625317
vn 0.1827405 -0.008656963 -0.983123
vn 0.1827405 -0.008656963 -0.983123
vn 0.08454277 0.158791 -0.983686
vn 0.331979 -0.2891144 -0.897888
vn 0.2647501 -0.9643171 0
vn 0.2647501 -0.9643171 0
vn 0.2647501 -0.964317 0
vn 0.2647501 -0.964317 0
vn -0.02611336 0.2331675 0.9720859
vn -0.02611336 0.2331675 0.9720859
vn -0.03467008 0.2153674 0.9759175
vn -0.01618968 0.2536658 0.9671564
vn 0.02950978 -0.2088993 -0.9774919
vn 0.02950978 -0.2088993 -0.9774919
vn 0.0269592 -0.1890269 -0.9816018
vn 0.03263919 -0.2332937 -0.9718584
vn -0.09973874 -0.9950137 0
vn -0.09973874 -0.9950137 0
vn -0.09973874 -0.9950137 0
vn -0.09973874 -0.9950137 0
vn 0.1214225 0.3786954 -0.9175219
vn 0.1214225 0.3786954 -0.9175219
vn 0.1264342 0.3484746 -0.9287518
vn 0.1152741 0.4142236 -0.9028459
vn 0.2064899 0.9784488 0
vn 0.2064899 0.9784488 0
vn 0.2064899 0.9784488 0
vn 0.2064898 0.9784487 0
vn -0.05723593 -0.001691545 0.9983592
vn -0.05723593 -0.001691545 0.9983592
vn -0.05726938 -0.001764301 0.9983572
vn -0.05719494 -0.001602391 0.9983618
vn -0.309924 0.3167714 0.8964391
vn -0.309924 0.3167714 0.8964391
vn -0.2989447 0.3732737 0.8782361
vn -0.3214756 0.2482976 0.9137843
vn 0.294005 -0.279299 -0.914086
vn 0.294005 -0.279299 -0.914086
vn 0.3154926 -0.3550279 -0.8800112
vn 0.2727848 -0.2092835 -0.9390361
vn 0.162177 -0.9866822 0.01251598
vn 0.162177 -0.9866822 0.01251598
vn 0.1601267 -0.9870964 0
vn 0.1642781 -0.9860842 0.0255082
vn 0.1930902 0.5227883 -0.8303064
vn 0.1930902 0.5227883 -0.8303064
vn 0.2557653 0.4064581 -0.8771407
vn 0.1099129 0.6530041 -0.7493362
vn -0.04022414 0.9991859 -0.003104753
vn -0.04022414 0.9991859 -0.003104753
vn -0.04260166 0.9990921 0
vn -0.03807334 0.9992574 -0.005912703
vn -0.2937515 -0.05320392 0.9544
vn -0.2937515 -0.05320392 0.9544
vn -0.289555 -0.008112263 0.957127
vn -0.300656 -0.1486068 0.9420839
vn -0.3178855 0.05127788 -0.9467415
vn -0.3178855 0.05127788 -0.9467415
vn -0.3099017 0.06774601 -0.948352
vn -0.3335997 0.01814355 -0.9425402
vn -0.6035687 -0.7450973 0.2837869
vn -0.6035687 -0.7450973 0.2837869
vn -0.6178046 -0.7428809 0.25777
vn -0.5810722 -0.7471942 0.322577
vn 0.3744094 0.1423834 0.9162667
vn 0.3744094 0.1423834 0.9162667
vn 0.3433822 0.1131833 0.9323509
vn 0.427073 0.1930024 0.8833792
vn 0.5150915 0.8222092 -0.2421836
vn 0.5150915 0.8222092 -0.2421836
vn 0.5207627 0.8255895 -0.2172744
vn 0.5055749 0.8158551 -0.2806676
vn -0.4050803 0.9142811 0
vn -0.4050803 0.9142811 0
vn -0.4050803 0.9142811 0
vn -0.4050803 0.914281 0
vn -0.4890261 0.8722692 0
vn -0.4890261 0.8722692 0
vn -0.4890261 0.8722692 0
vn -0.4890261 0.8722692 0
vn 0.983124 0.1255275 0.1330789
vn 0.9840453 0.09114611 0.1527972
vn 0.983124 0.1255275 0.1330789
vn 0.9806255 0.1600469 0.1129545
vn 0.7309412 0.6755572 0.09668157
vn 0.7118431 0.6975359 0.08199446
vn 0.7309412 0.6755572 0.09668157
vn 0.7569599 0.6428007 0.1175541
vn 0.9976694 0.06823263 0
vn 0.9976694 0.06823263 0
vn 0.9976695 0.06823264 0
vn 0.9976694 0.06823263 0
vn 0 -1 0
vn 0 -1 0
vn 0 -1 0
vn 0 -0.9999999 0
vn 0 -0.9999999 0
vn 0 -1 0
vn 0 -1 0
vn 0 -1 0
vn 0 -1 0
vn 0 -1 0
vn 0 -1 0
vn 0 -1 0
vn 0 -1 0
vn 0 -1 0

vt 0.0508824 0.7456962
vt 0.65942 0
vt 0 0
vt 0.6085377 0.7456962
vt 0.01610571 0.1352898
vt 0.1435399 0
vt 0 0
vt 0.1274341 0.1352899
vt 0.7351092 0.7456962
vt 0.6842268 1.491392
vt 0.1017648 1.491392
vt 0.0508824 0.7456962
vt 0 0.7445318
vt 0.7546163 0.9215449
vt 0.08639532 0
vt 0.6700342 1.169171
vt 0 0
vt 0.5785491 1.033284
vt 0.5576553 0
vt 0.3771668 1.071402
vt 0.4687599 0
vt 0.08217537 1.172771
vt 0.5239742 0.745388
vt 0 0.9203664
vt 0 0.582462
vt 0.6630082 0.4392888
vt 0 0
vt 0.613119 0.5954792
vt 0 0
vt 0.06153566 0.3371686
vt 0.582462 0
vt 0.5209264 0.3371686
vt 0.06153563 0.5388364
vt 0.5209264 0.5388364
vt 0 0
vt 0.582462 0
vt 0.0508824 0.7543328
vt 0.5 0
vt 0 0.008636594
vt 0.5 0.7456962
vt 0.1017648 1.500029
vt 0.5 1.491392
vt 0.5 0.7456962
vt 0.9491176 0.7543328
vt 0.5 0
vt 1 0.008636594
vt 0.8982352 1.500029
vt 0.5 1.491392
vt 1.007827 0.005991459
vt 0.9517313 0.7512438
vt 0.5188181 0
vt 0.5133058 0.7455103
vt 0.8956361 1.496496
vt 0.5077935 1.491021
vt 0.5188181 0
vt 0.5133058 0.7455103
vt 0.04507065 0.7525784
vt 0 0.006810129
vt 0.5133058 0.7455103
vt 0.5077935 1.491021
vt 0.1038533 1.492458
vt 0.04507065 0.7525784
vt 0.3401556 0.4487429
vt 0.3905312 0
vt 0 0.02799022
vt 0.6340044 0.3735958
vt 0.6340044 0.3735958
vt 0.7952232 0.01960081
vt 0.3905312 0
vt 0.9376314 0.3313104
vt 0.3401556 0.4487429
vt 0.6001347 0.8584398
vt 0.6340044 0.3735958
vt 0.8801754 0.7562577
vt 0.8801754 0.7562577
vt 0.9376314 0.3313104
vt 0.6340044 0.3735958
vt 1.08004 0.64302
vt 0.7963166 0.01012534
vt 0.9366827 0.3225972
vt 0.6360741 0.3680914
vt 0.3966983 0
vt 0.3966983 0
vt 0.6360741 0.3680914
vt 0.3383855 0.4362211
vt 0 0.01251
vt 0.9366827 0.3225972
vt 1.077049 0.6350691
vt 0.8754499 0.7361829
vt 0.6360741 0.3680914
vt 0.8754499 0.7361829
vt 0.5235085 0.8603912
vt 0.6360741 0.3680914
vt 0.3383855 0.4362211
vt 0 0
vt 0.3294027 0.6965899
vt 0.4106164 0
vt 0.1764421 0.6965899
vt 0 0
vt 0.4525694 0.5675138
vt 0.3602095 0.1162485
vt 0.3224025 0.6081251
vt 0.1053101 0.1244988
vt 0.1680404 0.6851903
vt 0.3845669 0
vt 0 0.6260036
vt 0 0.4212323
vt 0.2606274 0.7808646
vt 0.191834 0
vt 0.1284379 0.8558997
vt 0 0
vt 0.2493999 0.7828438
vt 0.4593908 0
vt 0.04046556 0.7828438
vt 0.149001 0
vt 0.143794 0.8810147
vt 0.3916919 0.4307711
vt 0 0.7966613
vt 0.3224925 0.04026484
vt 0.00486666 0.1642178
vt 0.5356818 0.1540412
vt 0 0
vt 0.5075731 0
vt 0 0.3340447
vt 0.5075731 0.4106164
vt 0 0.1556855
vt 0 0.1764588
vt 0.5113938 0
vt 0.1905638 0.04777241
vt 0.5065447 0.1460727
vt 0.1498149 0.3082609
vt 0.4058596 0.1080381
vt 0 0
vt 0.4714507 0.2664306
vt 0.4732342 0
vt 0 0.2658361
vt 0.3228012 0.3079598
vt 0.06600749 0.1076237
vt 0 0.4593908
vt 0.4065335 0.1102903
vt 0 0
vt 0.4065335 0.3539174
vt 0.05834889 0.2151026
vt 0.5254068 0
vt 0 0.05385554
vt 0.5888527 0.133051
vt 0.5925055 0.05418658
vt 0 0.1312965
vt 0.5304354 0.214038
vt 0.06715238 0
vt 0 0.2436272
vt 0.527293 0.03024511
vt 0 0
vt 0.527293 0.2738723
vt 0.5306267 0.0815053
vt 0.003770828 0.1347077
vt 0.5357121 0.2467856
vt 0 0
vt 0.5427782 0
vt 0 0.2086043
vt 0.5427782 0.1783592
vt 0 0.03024511
vt 0 0.2467856
vt 0.5357121 0
vt 0.005085349 0.0815053
vt 0.5319413 0.1347076
vt 0.05068123 0.1385655
vt 0.555382 0.1005852
vt 0 0
vt 0.5391413 0.2208728
vt 0.5934744 0
vt 0.007053256 0.2121315
vt 0.52253 0.1293671
vt 0 0.09162295
vt 0 0.2436271
vt 0.5827612 0.146306
vt 0 0
vt 0.5458583 0.3870477
vt 0.5154879 0
vt 0.0671773 0.1519502
vt 0.5190959 0.1347121
vt 0 0.08216679
vt 0.4319844 0
vt 0.02734494 0.3100964
vt 0.4319844 0.1783592
vt 0 0.1338497
vt 0 0.1347119
vt 0.4923402 0.08224392
vt 0.00361526 0
vt 0.425099 0.1520221
vt 0 0.2502613
vt 0.8476875 0.6659819
vt 0.0955624 0
vt 0.7619638 0.7716244
vt 0.9637611 0
vt 0.05356407 0.4160688
vt 1.028363 0.2084257
vt 0 0.2833273
vt 0.740527 0
vt 0.08073366 0.7753307
vt 0.8333207 0.2513011
vt 0 0.6668521
vt 0 0.1600133
vt 0.9381272 0.2697366
vt 0.05511844 0
vt 0.8924266 0.3710114
vt 0 0.08069573
vt 0 0.2336561
vt 0.173485 0.2898486
vt 0.173485 0
vt 0.173485 0
vt 0.173485 0.2898486
vt 0.3378022 0.05270959
vt 0.3378022 0.2616436
vt 0.02807969 0
vt 0.2717026 0.0005065203
vt 0.2390055 0.1142048
vt 0 0.1170137
vt 0 0.1170137
vt 0.2390055 0.1142048
vt 0.2386036 0.2033193
vt 0.06024756 0.2029485
vt 0.7351091 0.7456962
vt 0 0
vt 0.05088231 0.7456962
vt 0.7859915 0
vt 0.5 0
vt 0.5094091 0
vt 0 0.07429695
vt 0 0.8602885
vt 0.5094091 0
vt 0.5 0.98686
vt 0 0.07429695
vt 0.5094091 0
vt 1 0.2008685
vt 1 0.8602885
vt 0.5 0
vt 1 0.8602885
vt 0.5 0.98686
vt 0.5094091 0

g Brown
usemtl Brown
usemap Brown
f 2/2/2 1/1/1 3/3/3
f 1/1/1 2/2/2 4/4/4
f 6/6/6 5/5/5 7/7/7
f 5/5/5 6/6/6 8/8/8
f 10/10/10 9/9/9 11/11/11
f 12/12/12 11/11/11 9/9/9
f 14/14/14 13/13/13 15/15/15
f 14/14/14 16/16/16 13/13/13
f 18/18/18 17/17/17 19/19/19
f 18/18/18 20/20/20 17/17/17
f 22/22/22 21/21/21 23/23/23
f 22/22/22 24/24/24 21/21/21
f 26/26/26 25/25/25 27/27/27
f 26/26/26 28/28/28 25/25/25
f 30/30/30 29/29/29 31/31/31
f 31/31/31 32/32/32 30/30/30
f 34/34/34 33/33/33 35/35/35
f 35/35/35 36/36/36 34/34/34
f 38/38/38 37/37/37 39/39/39
f 37/37/37 38/38/38 40/40/40
f 40/40/40 41/41/41 37/37/37
f 41/41/41 40/40/40 42/42/42
f 44/44/44 43/43/43 45/45/45
f 45/45/45 46/46/46 44/44/44
f 43/43/43 44/44/44 47/47/47
f 47/47/47 48/48/48 43/43/43
f 50/50/50 49/49/49 51/51/51
f 51/51/51 52/52/52 50/50/50
f 53/53/53 50/50/50 52/52/52
f 52/52/52 54/54/54 53/53/53
f 56/56/56 55/55/55 57/57/57
f 58/58/58 57/57/57 55/55/55
f 60/60/60 59/59/59 61/61/61
f 62/62/62 61/61/61 59/59/59
f 64/64/64 63/63/63 65/65/65
f 63/63/63 64/64/64 66/66/66
f 68/68/68 67/67/67 69/69/69
f 67/67/67 68/68/68 70/70/70
f 72/72/72 71/71/71 73/73/73
f 73/73/73 74/74/74 72/72/72
f 76/76/76 75/75/75 77/77/77
f 75/75/75 76/76/76 78/78/78
f 80/80/80 79/79/79 81/81/81
f 82/82/82 81/81/81 79/79/79
f 84/84/84 83/83/83 85/85/85
f 86/86/86 85/85/85 83/83/83
f 88/88/88 87/87/87 89/89/89
f 90/90/90 89/89/89 87/87/87
f 92/92/92 91/91/91 93/93/93
f 93/93/93 94/94/94 92/92/92
f 96/96/96 95/95/95 97/97/97
f 96/96/96 98/98/98 95/95/95
f 100/100/100 99/99/99 101/101/101
f 100/100/100 102/102/102 99/99/99
f 104/104/104 103/103/103 105/105/105
f 104/104/104 106/106/106 103/103/103
f 108/108/108 107/107/107 109/109/109
f 108/108/108 110/110/110 107/107/107
f 112/112/112 111/111/111 113/113/113
f 112/112/112 114/114/114 111/111/111
f 116/116/116 115/115/115 117/117/117
f 116/116/116 118/118/118 115/115/115
f 120/120/120 119/119/119 121/121/121
f 120/120/120 122/122/122 119/119/119
f 124/124/124 123/123/123 125/125/125
f 124/124/124 126/126/126 123/123/123
f 128/128/128 127/127/127 129/129/129
f 128/128/128 130/130/130 127/127/127
f 132/132/132 131/131/131 133/133/133
f 132/132/132 134/134/134 131/131/131
f 136/136/136 135/135/135 137/137/137
f 136/136/136 138/138/138 135/135/135
f 140/140/140 139/139/139 141/141/141
f 140/140/140 142/142/142 139/139/139
f 144/144/144 143/143/143 145/145/145
f 144/144/144 146/146/146 143/143/143
f 148/148/148 147/147/147 149/149/149
f 148/148/148 150/150/150 147/147/147
f 152/152/152 151/151/151 153/153/153
f 152/152/152 154/154/154 151/151/151
f 156/156/156 155/155/155 157/157/157
f 156/156/156 158/158/158 155/155/155
f 160/160/160 159/159/159 161/161/161
f 160/160/160 162/162/162 159/159/159
f 164/164/164 163/163/163 165/165/165
f 164/164/164 166/166/166 163/163/163
f 168/168/168 167/167/167 169/169/169
f 168/168/168 170/170/170 167/167/167
f 172/172/172 171/171/171 173/173/173
f 172/172/172 174/174/174 171/171/171
f 176/176/176 175/175/175 177/177/177
f 176/176/176 178/178/178 175/175/175
f 180/180/180 179/179/179 181/181/181
f 180/180/180 182/182/182 179/179/179
f 184/184/184 183/183/183 185/185/185
f 184/184/184 186/186/186 183/183/183
f 188/188/188 187/187/187 189/189/189
f 188/188/188 190/190/190 187/187/187
f 192/192/192 191/191/191 193/193/193
f 192/192/192 194/194/194 191/191/191
f 196/196/196 195/195/195 197/197/197
f 196/196/196 198/198/198 195/195/195
f 200/200/200 199/199/199 201/201/201
f 200/200/200 202/202/202 199/199/199
f 204/204/204 203/203/203 205/205/205
f 204/204/204 206/206/206 203/203/203
f 208/208/208 207/207/207 209/209/209
f 210/210/210 209/209/209 207/207/207
f 212/212/212 211/211/211 213/213/213
f 213/213/213 214/214/214 212/212/212
f 216/216/216 215/215/215 217/217/217
f 218/218/218 217/217/217 215/215/215
f 220/220/220 219/219/219 221/221/221
f 222/222/222 221/221/221 219/219/219
f 224/224/224 223/223/223 225/225/225
f 223/223/223 224/224/224 226/226/226
f 228/228/228 227/227/227 229/229/229
f 231/231/231 230/230/230 232/232/232
f 230/230/230 231/231/231 233/233/233
f 235/235/235 234/234/234 236/236/236
f 234/234/234 235/235/235 237/237/237
f 239/239/239 238/238/238 240/240/240
